<mxfile host="app.diagrams.net" agent="Mozilla/5.0 (Macintosh; Intel Mac OS X 10_15_7) AppleWebKit/537.36 (KHTML, like Gecko) Chrome/127.0.0.0 Safari/537.36" version="24.7.7">
  <diagram id="C5RBs43oDa-KdzZeNtuy" name="Page-1">
    <mxGraphModel dx="2021" dy="680" grid="1" gridSize="10" guides="1" tooltips="1" connect="1" arrows="1" fold="1" page="1" pageScale="1" pageWidth="827" pageHeight="1169" math="0" shadow="0">
      <root>
        <mxCell id="WIyWlLk6GJQsqaUBKTNV-0" />
        <mxCell id="WIyWlLk6GJQsqaUBKTNV-1" parent="WIyWlLk6GJQsqaUBKTNV-0" />
        <mxCell id="WIyWlLk6GJQsqaUBKTNV-3" value="create environments" style="rounded=1;whiteSpace=wrap;html=1;fontSize=12;glass=0;strokeWidth=1;shadow=0;" parent="WIyWlLk6GJQsqaUBKTNV-1" vertex="1">
          <mxGeometry x="150" y="200" width="120" height="40" as="geometry" />
        </mxCell>
        <mxCell id="kAtm2KoKQH8MLSzoGUS2-6" value="" style="edgeStyle=orthogonalEdgeStyle;rounded=0;orthogonalLoop=1;jettySize=auto;html=1;" edge="1" parent="WIyWlLk6GJQsqaUBKTNV-1" source="kAtm2KoKQH8MLSzoGUS2-0" target="WIyWlLk6GJQsqaUBKTNV-3">
          <mxGeometry relative="1" as="geometry" />
        </mxCell>
        <mxCell id="kAtm2KoKQH8MLSzoGUS2-0" value="create project" style="rounded=1;whiteSpace=wrap;html=1;fontSize=12;glass=0;strokeWidth=1;shadow=0;" vertex="1" parent="WIyWlLk6GJQsqaUBKTNV-1">
          <mxGeometry x="-50" y="200" width="120" height="40" as="geometry" />
        </mxCell>
        <mxCell id="kAtm2KoKQH8MLSzoGUS2-12" value="" style="edgeStyle=orthogonalEdgeStyle;rounded=0;orthogonalLoop=1;jettySize=auto;html=1;" edge="1" parent="WIyWlLk6GJQsqaUBKTNV-1" source="kAtm2KoKQH8MLSzoGUS2-2" target="kAtm2KoKQH8MLSzoGUS2-11">
          <mxGeometry relative="1" as="geometry" />
        </mxCell>
        <mxCell id="kAtm2KoKQH8MLSzoGUS2-2" value="create customer" style="rounded=1;whiteSpace=wrap;html=1;fontSize=12;glass=0;strokeWidth=1;shadow=0;" vertex="1" parent="WIyWlLk6GJQsqaUBKTNV-1">
          <mxGeometry x="-240" y="80" width="120" height="40" as="geometry" />
        </mxCell>
        <mxCell id="kAtm2KoKQH8MLSzoGUS2-8" value="" style="edgeStyle=orthogonalEdgeStyle;rounded=0;orthogonalLoop=1;jettySize=auto;html=1;" edge="1" parent="WIyWlLk6GJQsqaUBKTNV-1" source="kAtm2KoKQH8MLSzoGUS2-4" target="kAtm2KoKQH8MLSzoGUS2-2">
          <mxGeometry relative="1" as="geometry" />
        </mxCell>
        <mxCell id="kAtm2KoKQH8MLSzoGUS2-4" value="generate lead" style="rounded=1;whiteSpace=wrap;html=1;fontSize=12;glass=0;strokeWidth=1;shadow=0;" vertex="1" parent="WIyWlLk6GJQsqaUBKTNV-1">
          <mxGeometry x="-440" y="80" width="120" height="40" as="geometry" />
        </mxCell>
        <mxCell id="kAtm2KoKQH8MLSzoGUS2-13" value="" style="edgeStyle=orthogonalEdgeStyle;rounded=0;orthogonalLoop=1;jettySize=auto;html=1;" edge="1" parent="WIyWlLk6GJQsqaUBKTNV-1" source="kAtm2KoKQH8MLSzoGUS2-11" target="kAtm2KoKQH8MLSzoGUS2-0">
          <mxGeometry relative="1" as="geometry" />
        </mxCell>
        <mxCell id="kAtm2KoKQH8MLSzoGUS2-23" value="" style="edgeStyle=orthogonalEdgeStyle;rounded=0;orthogonalLoop=1;jettySize=auto;html=1;" edge="1" parent="WIyWlLk6GJQsqaUBKTNV-1" source="kAtm2KoKQH8MLSzoGUS2-11" target="kAtm2KoKQH8MLSzoGUS2-22">
          <mxGeometry relative="1" as="geometry" />
        </mxCell>
        <mxCell id="kAtm2KoKQH8MLSzoGUS2-11" value="is SaaS" style="rhombus;whiteSpace=wrap;html=1;shadow=0;fontFamily=Helvetica;fontSize=12;align=center;strokeWidth=1;spacing=6;spacingTop=-4;" vertex="1" parent="WIyWlLk6GJQsqaUBKTNV-1">
          <mxGeometry x="-230" y="180" width="100" height="80" as="geometry" />
        </mxCell>
        <mxCell id="kAtm2KoKQH8MLSzoGUS2-14" value="No" style="text;html=1;align=center;verticalAlign=middle;resizable=0;points=[];autosize=1;strokeColor=none;fillColor=none;" vertex="1" parent="WIyWlLk6GJQsqaUBKTNV-1">
          <mxGeometry x="-110" y="198" width="40" height="30" as="geometry" />
        </mxCell>
        <mxCell id="kAtm2KoKQH8MLSzoGUS2-27" value="" style="edgeStyle=orthogonalEdgeStyle;rounded=0;orthogonalLoop=1;jettySize=auto;html=1;" edge="1" parent="WIyWlLk6GJQsqaUBKTNV-1" source="kAtm2KoKQH8MLSzoGUS2-22" target="kAtm2KoKQH8MLSzoGUS2-26">
          <mxGeometry relative="1" as="geometry" />
        </mxCell>
        <mxCell id="kAtm2KoKQH8MLSzoGUS2-22" value="select software_type(acc,hrms)" style="rounded=1;whiteSpace=wrap;html=1;fontSize=12;glass=0;strokeWidth=1;shadow=0;" vertex="1" parent="WIyWlLk6GJQsqaUBKTNV-1">
          <mxGeometry x="-250" y="310" width="140" height="60" as="geometry" />
        </mxCell>
        <mxCell id="kAtm2KoKQH8MLSzoGUS2-25" value="Yes" style="text;html=1;align=center;verticalAlign=middle;resizable=0;points=[];autosize=1;strokeColor=none;fillColor=none;" vertex="1" parent="WIyWlLk6GJQsqaUBKTNV-1">
          <mxGeometry x="-180" y="268" width="40" height="30" as="geometry" />
        </mxCell>
        <mxCell id="kAtm2KoKQH8MLSzoGUS2-29" value="" style="edgeStyle=orthogonalEdgeStyle;rounded=0;orthogonalLoop=1;jettySize=auto;html=1;" edge="1" parent="WIyWlLk6GJQsqaUBKTNV-1" source="kAtm2KoKQH8MLSzoGUS2-26" target="kAtm2KoKQH8MLSzoGUS2-28">
          <mxGeometry relative="1" as="geometry" />
        </mxCell>
        <mxCell id="kAtm2KoKQH8MLSzoGUS2-26" value="select tier(free,enterprise)" style="rounded=1;whiteSpace=wrap;html=1;fontSize=12;glass=0;strokeWidth=1;shadow=0;" vertex="1" parent="WIyWlLk6GJQsqaUBKTNV-1">
          <mxGeometry x="-250" y="390" width="140" height="50" as="geometry" />
        </mxCell>
        <mxCell id="kAtm2KoKQH8MLSzoGUS2-44" value="" style="edgeStyle=orthogonalEdgeStyle;rounded=0;orthogonalLoop=1;jettySize=auto;html=1;" edge="1" parent="WIyWlLk6GJQsqaUBKTNV-1" source="kAtm2KoKQH8MLSzoGUS2-28" target="kAtm2KoKQH8MLSzoGUS2-43">
          <mxGeometry relative="1" as="geometry" />
        </mxCell>
        <mxCell id="kAtm2KoKQH8MLSzoGUS2-28" value="register payment method(card*)" style="rounded=1;whiteSpace=wrap;html=1;fontSize=12;glass=0;strokeWidth=1;shadow=0;" vertex="1" parent="WIyWlLk6GJQsqaUBKTNV-1">
          <mxGeometry x="-240" y="460" width="120" height="40" as="geometry" />
        </mxCell>
        <mxCell id="kAtm2KoKQH8MLSzoGUS2-38" value="&lt;span style=&quot;color: rgb(0, 0, 0); font-family: Helvetica; font-size: 12px; font-style: normal; font-variant-ligatures: normal; font-variant-caps: normal; font-weight: 400; letter-spacing: normal; orphans: 2; text-align: center; text-indent: 0px; text-transform: none; widows: 2; word-spacing: 0px; -webkit-text-stroke-width: 0px; white-space: normal; background-color: rgb(251, 251, 251); text-decoration-thickness: initial; text-decoration-style: initial; text-decoration-color: initial; display: inline !important; float: none;&quot;&gt;generate db url&lt;/span&gt;" style="rounded=1;whiteSpace=wrap;html=1;fontSize=12;glass=0;strokeWidth=1;shadow=0;" vertex="1" parent="WIyWlLk6GJQsqaUBKTNV-1">
          <mxGeometry x="-533" y="540" width="120" height="40" as="geometry" />
        </mxCell>
        <mxCell id="kAtm2KoKQH8MLSzoGUS2-47" value="" style="edgeStyle=orthogonalEdgeStyle;rounded=0;orthogonalLoop=1;jettySize=auto;html=1;" edge="1" parent="WIyWlLk6GJQsqaUBKTNV-1" source="kAtm2KoKQH8MLSzoGUS2-40" target="kAtm2KoKQH8MLSzoGUS2-38">
          <mxGeometry relative="1" as="geometry" />
        </mxCell>
        <mxCell id="kAtm2KoKQH8MLSzoGUS2-40" value="generate domain" style="rounded=1;whiteSpace=wrap;html=1;fontSize=12;glass=0;strokeWidth=1;shadow=0;" vertex="1" parent="WIyWlLk6GJQsqaUBKTNV-1">
          <mxGeometry x="-533" y="460" width="120" height="40" as="geometry" />
        </mxCell>
        <mxCell id="kAtm2KoKQH8MLSzoGUS2-46" value="" style="edgeStyle=orthogonalEdgeStyle;rounded=0;orthogonalLoop=1;jettySize=auto;html=1;" edge="1" parent="WIyWlLk6GJQsqaUBKTNV-1" source="kAtm2KoKQH8MLSzoGUS2-43" target="kAtm2KoKQH8MLSzoGUS2-40">
          <mxGeometry relative="1" as="geometry" />
        </mxCell>
        <mxCell id="kAtm2KoKQH8MLSzoGUS2-52" style="edgeStyle=orthogonalEdgeStyle;rounded=0;orthogonalLoop=1;jettySize=auto;html=1;entryX=0.5;entryY=1;entryDx=0;entryDy=0;exitX=0.5;exitY=1;exitDx=0;exitDy=0;" edge="1" parent="WIyWlLk6GJQsqaUBKTNV-1" source="kAtm2KoKQH8MLSzoGUS2-43" target="kAtm2KoKQH8MLSzoGUS2-28">
          <mxGeometry relative="1" as="geometry">
            <mxPoint x="-300" y="640" as="targetPoint" />
            <Array as="points">
              <mxPoint x="-330" y="560" />
              <mxPoint x="-180" y="560" />
            </Array>
          </mxGeometry>
        </mxCell>
        <mxCell id="kAtm2KoKQH8MLSzoGUS2-54" value="No" style="edgeLabel;html=1;align=center;verticalAlign=middle;resizable=0;points=[];" vertex="1" connectable="0" parent="kAtm2KoKQH8MLSzoGUS2-52">
          <mxGeometry x="-0.9714" y="4" relative="1" as="geometry">
            <mxPoint x="-4" y="16" as="offset" />
          </mxGeometry>
        </mxCell>
        <mxCell id="kAtm2KoKQH8MLSzoGUS2-43" value="valid card?" style="rhombus;whiteSpace=wrap;html=1;rounded=1;glass=0;strokeWidth=1;shadow=0;" vertex="1" parent="WIyWlLk6GJQsqaUBKTNV-1">
          <mxGeometry x="-370" y="440" width="80" height="80" as="geometry" />
        </mxCell>
        <mxCell id="kAtm2KoKQH8MLSzoGUS2-53" value="yes" style="text;html=1;align=center;verticalAlign=middle;resizable=0;points=[];autosize=1;strokeColor=none;fillColor=none;" vertex="1" parent="WIyWlLk6GJQsqaUBKTNV-1">
          <mxGeometry x="-410" y="458" width="40" height="30" as="geometry" />
        </mxCell>
      </root>
    </mxGraphModel>
  </diagram>
</mxfile>
